<svg xmlns="http://www.w3.org/2000/svg" width="25" height="15" viewBox="0 0 25 15">
  <g fill="none" fill-rule="evenodd" transform="translate(0 -5)">
    <polygon points="0 0 25 0 25 25 0 25"/>
    <polygon fill="#2C2C2C" fill-rule="nonzero" points="5.208 15.625 5.208 12.5 8.333 12.5 8.333 10.417 5.208 10.417 5.208 7.292 3.125 7.292 3.125 10.417 0 10.417 0 12.5 3.125 12.5 3.125 15.625"/>
    <path fill="#2C2C2C" fill-rule="nonzero" d="M12.5,14.3229167 C10.0625,14.3229167 5.20833333,15.5416667 5.20833333,17.96875 L5.20833333,19.7916667 L19.7916667,19.7916667 L19.7916667,17.96875 C19.7916667,15.5416667 14.9375,14.3229167 12.5,14.3229167 Z"/>
    <path fill="#2C2C2C" fill-rule="nonzero" d="M7.64583333 17.7083333C8.52083333 17.1041667 10.6354167 16.40625 12.5 16.40625 14.3645833 16.40625 16.4791667 17.1041667 17.3541667 17.7083333L7.64583333 17.7083333zM12.5 12.5C14.5104167 12.5 16.1458333 10.8645833 16.1458333 8.85416667 16.1458333 6.84375 14.5104167 5.20833333 12.5 5.20833333 10.4895833 5.20833333 8.85416667 6.84375 8.85416667 8.85416667 8.85416667 10.8645833 10.4895833 12.5 12.5 12.5z"/>
    <path fill="#2C2C2C" fill-rule="nonzero" d="M12.5 7.29166667C13.3645833 7.29166667 14.0625 7.98958333 14.0625 8.85416667 14.0625 9.71875 13.3645833 10.4166667 12.5 10.4166667 11.6354167 10.4166667 10.9375 9.71875 10.9375 8.85416667 10.9375 7.98958333 11.6354167 7.29166667 12.5 7.29166667zM17.7083333 12.5C19.71875 12.5 21.3541667 10.8645833 21.3541667 8.85416667 21.3541667 6.84375 19.71875 5.20833333 17.7083333 5.20833333 17.4583333 5.20833333 17.2083333 5.22916667 16.96875 5.28125 17.7604167 6.26041667 18.2291667 7.5 18.2291667 8.85416667 18.2291667 10.2083333 17.7395833 11.4375 16.9479167 12.4166667 17.1979167 12.46875 17.4479167 12.5 17.7083333 12.5zM20.125 14.6041667C21.1666667 15.4479167 21.875 16.5520833 21.875 17.96875L21.875 19.7916667 25 19.7916667 25 17.96875C25 16.2083333 22.4583333 15.09375 20.125 14.6041667z"/>
  </g>
</svg>
